<svg xmlns="http://www.w3.org/2000/svg" xmlns:xlink="http://www.w3.org/1999/xlink" width="244.95" height="199.917" viewBox="0 0 244.95 199.917">
  <defs>
    <clipPath id="clip-path">
      <rect id="Rectangle_307" data-name="Rectangle 307" width="84" height="108" transform="translate(826 6954.899)" fill="#fff" opacity="0.5"/>
    </clipPath>
  </defs>
  <g id="Group_10" data-name="Group 10" transform="translate(-728 -7381.624)">
    <path id="Path_469" data-name="Path 469" d="M120.342,40.623c74.673,0,108.025-7.141,126.88,70.944s-43.629,128.8-118.3,128.8S5.667,195.957,5.667,121.284,45.669,40.623,120.342,40.623Z" transform="translate(722.333 7341.171)" fill="#2EFAD6"/>
    <g id="Mask_Group_30" data-name="Mask Group 30" transform="matrix(0.839, 0.545, -0.545, 0.839, 3934.719, 1121.096)" clip-path="url(#clip-path)">
      <g id="sale" transform="translate(829.327 6954.86)">
        <path id="Path_470" data-name="Path 470" d="M183.394,20.351l-24.248-17.7a13.72,13.72,0,0,0-16.208-.011L118.606,20.349A15.321,15.321,0,0,0,112.319,32.7V91.684a16.412,16.412,0,0,0,16.394,16.394h44.558a16.412,16.412,0,0,0,16.394-16.394V32.69a15.324,15.324,0,0,0-6.27-12.339Zm-32.25-4.423a3.593,3.593,0,1,1-3.593,3.593A3.593,3.593,0,0,1,151.144,15.928ZM127.077,51.046a10.2,10.2,0,1,1,10.2,10.2A10.19,10.19,0,0,1,127.077,51.046Zm10.907,30.132a3.41,3.41,0,0,1-2.408-5.814L161.9,49.045a3.406,3.406,0,0,1,4.817,4.817L140.393,80.181a3.4,3.4,0,0,1-2.408,1Zm33.935,4.515a10.2,10.2,0,1,1-7.209-17.4A10.114,10.114,0,0,1,171.92,85.694Z" transform="translate(-112.319 0.001)" fill="#fff"/>
        <path id="Path_471" data-name="Path 471" d="M473.932,548.96a3.383,3.383,0,1,0,2.392,5.776,3.324,3.324,0,0,0,.991-2.392A3.381,3.381,0,0,0,473.932,548.96Z" transform="translate(-421.54 -473.858)" fill="#fff"/>
        <path id="Path_472" data-name="Path 472" d="M275.761,354.173a3.383,3.383,0,1,0-5.776-2.392A3.387,3.387,0,0,0,275.761,354.173Z" transform="translate(-248.415 -300.734)" fill="#fff"/>
      </g>
    </g>
  </g>
</svg>
