<svg xmlns="http://www.w3.org/2000/svg" width="664.713" height="720.162" viewBox="0 0 664.713 720.162">
  <g id="Logo" transform="translate(0.391 0.471)" opacity="0.498">
    <path id="Path_1" data-name="Path 1" d="M286.176,519.836h-127.6c-19.464,0-34.6-15.293-35.684-32.771-1.081-19.662,11.895-36.048,32.44-39.325,4.325-1.092,9.732,0,14.057-1.092H377.006c33.522,0,67.042-2.185,99.483-14.2,56.228-19.662,99.481-54.618,110.295-116.882,7.568-40.419,7.568-81.929-1.082-121.254-11.894-53.525-49.741-83.019-98.4-100.5-24.869-8.739-50.821-14.2-76.773-15.293-59.473-2.185-117.865-4.369-177.338,2.185C149.929,90.537,93.7,146.248,78.561,229.268c-3.244,18.57-5.407,38.233-5.407,56.8V433.54c0,31.678,3.244,62.264,12.976,91.758,20.545,63.357,64.879,98.312,127.6,111.421,22.706,5.462,46.5,6.554,70.285,6.554,54.067,0,108.132,1.092,162.2-1.092,58.391-2.185,105.97-24.032,140.573-71,5.407-7.645,11.894-15.293,20.545-20.755,15.138-8.739,32.439-6.554,45.416,7.647,11.894,13.108,12.975,32.771,2.161,45.879-29.2,39.325-62.715,73.188-107.051,92.852-31.359,13.108-63.8,20.753-97.318,20.753q-98.941,3.278-197.883,0c-51.9-2.183-101.644-15.293-144.9-44.785C49.366,633.443,19.089,575.548,7.194,507.82,1.787,480.511.706,453.2.706,424.8c0-54.618-2.163-110.33,1.081-164.948C6.113,185.574,28.821,118.939,85.049,67.6c41.09-38.233,91.912-56.8,147.06-62.265,69.2-6.554,138.41-7.647,206.532,0,63.8,6.554,123.272,28.4,167.605,77.558,35.685,39.325,54.067,85.2,56.23,138.731,1.081,38.232,4.324,77.557-5.407,115.79-21.626,84.112-75.692,137.637-155.711,164.946-34.6,12.016-70.285,17.478-107.051,17.478Z" transform="translate(0 0)" fill="none" stroke="#d0d0d0" stroke-width="1"/>
  </g>
</svg>
