<svg xmlns="http://www.w3.org/2000/svg" width="212.046" height="48.299" viewBox="0 0 212.046 48.299">
  <g id="logo" transform="translate(-0.01 -0.016)">
    <path id="Контур_600" data-name="Контур 600" d="M39.492,65.779c.608,0,1.266,0,1.873.051a10.571,10.571,0,0,1,1.823.2c.1,0,.152.051.253.051l-.051.051-.051.051c0,.051-.051.051-.051.1-.051.1,0,.152,0,.253,0,.051.051.051.051.1a.05.05,0,0,0,.051.051l.1.1c.051.051.1.051.152.1.1.051.152.051.253.1a13.66,13.66,0,0,0,1.823.3c1.215.1,2.329.2,3.443.253s2.127.051,3.089.1c1.924.051,3.494,0,4.608,0h1.772S56.1,67.5,52.3,67.248c-.962-.051-1.975-.152-3.089-.2-1.063-.1-2.228-.2-3.392-.3a8.864,8.864,0,0,1-1.671-.3l.051-.051a.428.428,0,0,0,.1-.3.3.3,0,0,0-.051-.2c0-.051-.051-.1-.1-.152a.77.77,0,0,0-.3-.2c-.2-.051-.354-.1-.506-.152a12.408,12.408,0,0,0-1.924-.2c-.658-.051-1.266-.051-1.924-.051-1.266,0-2.532.051-3.8.1s-2.481.152-3.7.253c-.608.051-1.165.1-1.722.1a4.355,4.355,0,0,1-.81-.051,4.036,4.036,0,0,1-.759-.152c-.2-.1-.405-.2-.456-.405a1.187,1.187,0,0,1-.1-.608c.051-.456.2-.962.253-1.418,0-.1.051-.253.051-.354v-.354a1.192,1.192,0,0,0-.1-.405l-.1-.1a.177.177,0,0,1-.1-.051c-.1,0-.152-.051-.253,0a2.544,2.544,0,0,0-.658.253,4.379,4.379,0,0,0-.506.354c-.608.506-1.063.962-1.468,1.367a10.964,10.964,0,0,0-.861.962,2.617,2.617,0,0,0-.3.354s.456-.456,1.266-1.215c.405-.354.911-.81,1.519-1.266a4.453,4.453,0,0,1,.506-.3,1.069,1.069,0,0,1,.506-.2c.253-.1.2.506.1.911-.1.456-.253.911-.354,1.468a1.464,1.464,0,0,0,.1.911,1.764,1.764,0,0,0,.709.658,2.779,2.779,0,0,0,.861.253,5.208,5.208,0,0,0,.861.051c.608,0,1.215-.051,1.772-.1,1.165-.1,2.43-.152,3.646-.2A25.6,25.6,0,0,1,39.492,65.779Z" transform="translate(-11.892 -30.43)" fill="#fff"/>
    <path id="Контур_601" data-name="Контур 601" d="M88.005,38.337,86.79,35.552l.354-.1s.152-1.215.2-1.418-.2-.405-.3-.608,0-.658-.051-.962a2.152,2.152,0,0,0-.354-.709s-.3-1.165-.405-1.873a22.291,22.291,0,0,0-.608-2.481,3.227,3.227,0,0,0-.759-.759s-.253-.557-.405-.962-.506-2.076-.506-2.076a19.469,19.469,0,0,0-.608-2.835,7.989,7.989,0,0,0-1.772-1.873s.81-.456.759-.759-.405-.3-.405-.3-.3-.354-.405-.456a1.692,1.692,0,0,1-.253-.608s-.354.051-.759.152a9.939,9.939,0,0,0-1.367.608l-.152-.506a5.5,5.5,0,0,0,.962-1.975A4.723,4.723,0,0,0,79.55,11.6c-.658-.911-2.582-.962-2.582-.962a3.534,3.534,0,0,0-2.38,1.114,3.053,3.053,0,0,0-.81,2.684l.405.051.3,1.722-.1.1h.152l.152.152a3.783,3.783,0,0,0,1.266,1.266,6.834,6.834,0,0,1-1.316-.759c-.709.557-.2,1.671-.354,2.481a22.461,22.461,0,0,1,2.987-.911A6.549,6.549,0,0,0,79.5,17.375a6.359,6.359,0,0,1,1.519-.456s.405.557.658.861-.253.405-.759.81-.354.354-.506.709-.3.405-.3.405a1.625,1.625,0,0,1-.506-.658,2.022,2.022,0,0,1-.253-1.114s-.3-.051-.861.354-1.975.456-2.987.962c-1.063.506-1.722,1.468-1.722,1.215a1.992,1.992,0,0,1,.506-1.063,3.919,3.919,0,0,0-1.519,2.481,9.488,9.488,0,0,0-.911-3.747.977.977,0,0,1-.152-.506c0-.1.051-.253.051-.354,0-.051.051-.1.1-.152l-.1.1a2.518,2.518,0,0,0-.81-.152,8.051,8.051,0,0,0-2.228.354l.253-.506.3.051a2.933,2.933,0,0,0,.051-.81,11.194,11.194,0,0,0-.506-2.278,3.022,3.022,0,0,0-1.873-1.975,6.438,6.438,0,0,0-2.278.1,3.786,3.786,0,0,0-1.722,1.316l-.354-1.013a4.667,4.667,0,0,0,.709-.962c.1-.253-.2-.405-.2-.405s-.2-.354-.354-.658c-.1-.3-.608-.152-.608-.152a.535.535,0,0,1-.3,0c-.152-.051-.456.2-.456.2h-.2c-.2,0-.405.354-.405.354h-.3a3.4,3.4,0,0,0-.3.759,3.48,3.48,0,0,0,.152,1.266l-.253.911A9.176,9.176,0,0,0,58.841,19.7a13.321,13.321,0,0,0,2.228,1.418c1.013.658,1.873,1.266,1.873,1.266l.81,2.38s-.051.658-.051,1.165a2.717,2.717,0,0,0,.354,1.114,8.245,8.245,0,0,0-3.8.405,3.4,3.4,0,0,0-1.823,2.481c-1.57-.557-3.139-1.165-4.709-1.722-.152-.051-.253-.1-.405-.152.253,0,.456-.051.709-.051.3-.051.557-.051.861-.1a1.847,1.847,0,0,0,1.468-1.823c.051-.3-.1-3.089-.3-2.987.3-.152.658-.051.81-.405.405-.861,0-2.329-.253-3.241a12.8,12.8,0,0,1-.608-3.9v-.3c0-.1-.051-.152-.1-.253a4.157,4.157,0,0,0-2.633-2.076,6.809,6.809,0,0,0-1.772-.253c-.2,0-1.57-.1-1.62.051.051-.1.1-.1.2-.2l.3-.759a11.1,11.1,0,0,0-.81-3.9c-1.013-2.025-4-1.519-5.165.1A4.865,4.865,0,0,0,43.8,11a.456.456,0,0,0,.051.253c.051.051.1.152.2.1.051,0,.456,1.57.709,1.519.152,0,.253-.051.405-.051l.253.658a10.486,10.486,0,0,1-1.215.861L43.6,12.514a7.2,7.2,0,0,1-.658-2.532c.051,0,.051.051.1.051A1.219,1.219,0,0,0,43.2,9.021c-.1-.2-.3-.405-.152-.608.152-.152.051-.253-.051-.405l-.3-.3a.186.186,0,0,0-.152-.051c-.253-.051-1.013-.506-1.013.051,0,.1-.1.152,0,.3-.051-.051-.051-.1-.1-.152,0-.051-.253.152-.253.152-.1.1-.051.152-.1.253,0,.051-.051.051-.051.1-.1.152-.253.2-.354.3-.152.152-.051.456-.051.658,0,.1.2.152.253.2.2.1.253.051.506.051.1,0-.1,1.013-.1,1.063a10.6,10.6,0,0,1-.405,1.165,22.479,22.479,0,0,0-1.114,3.089c-.152.608-.3,1.671.3,2.025a5.57,5.57,0,0,0,1.57.2,5.752,5.752,0,0,0,2.076.051,2.153,2.153,0,0,1,.557-.1l1.924,5.57a12.043,12.043,0,0,0-2.684-.557,2.656,2.656,0,0,0-.911.1,6.52,6.52,0,0,0-.81.861c-.911-.456-5.975-2.937-7.392-3.7,0-.608.911-1.215,1.013-1.823.1-.709.253-1.316.253-1.316a9.247,9.247,0,0,1-1.468-2.582,21.223,21.223,0,0,0-.658-2.38,6.268,6.268,0,0,0-1.418-1.57,8.5,8.5,0,0,0-1.722-.759,22.717,22.717,0,0,0,.354-3.19,3.646,3.646,0,0,0-.506-1.57A2.388,2.388,0,0,0,28.765,3.4a5.52,5.52,0,0,0-2.734.405,2.468,2.468,0,0,0-.911,1.367,2.423,2.423,0,0,1,.658-1.114A5.018,5.018,0,0,1,29.17,3.7a2.932,2.932,0,0,1,1.165,2.43c.152,1.468-.3,1.975-.354,1.418-.1-.557-.253-1.266-.253-1.266a4.076,4.076,0,0,0-2.43-.051,14.973,14.973,0,0,0-2.228.506,6.122,6.122,0,0,0,.253.911c.1.3.3,1.62.608,1.722a5.617,5.617,0,0,0-2.177-.405,3.827,3.827,0,0,0-1.519,1.063,5.8,5.8,0,0,0-2.228.405l-.709.405a11.171,11.171,0,0,1-2.38-1.266,2.082,2.082,0,0,1-.557-.861l-.253.051h0c-.2.253-.405.557-.506.658-.253.253-.405.051-.658-.1s-.709-.861-.911-1.013c-.253-.152-.506.253-.506.253V8.312a1.569,1.569,0,0,1,.1-.506L11.5,6.388s.051-.354-.1-.456-.405.051-.405.051l-.456-.3s-.962-1.114-1.57-1.671S6.992,2.337,6.992,2.337L4.056.21A1.692,1.692,0,0,0,2.891.059,17.986,17.986,0,0,0,.056.869c-.152.152.1.81.405,1.165A16.258,16.258,0,0,0,4.41,4.767,16.609,16.609,0,0,0,8.562,6.135s.81.253,1.114.354a6.562,6.562,0,0,1,.608.354,1.629,1.629,0,0,0,.051.405c.051.152.354.051.354.051l.253-.1,2.329,1.57a3.1,3.1,0,0,0,.2.3.4.4,0,0,0,.2.152s0,.2.051.253l.3.152.051.253-.3.253a.5.5,0,0,0,.051.354,11.423,11.423,0,0,0,1.063,1.722,12.661,12.661,0,0,0,1.266,1.063,12.247,12.247,0,0,0,1.367,1.266,6.891,6.891,0,0,0,1.823.253c.405-.051,1.316-.1,1.823-.1h.962l.253.2c.1.051-.3,3.038-.3,3.392.1.759.354.759,0,1.063a7.557,7.557,0,0,1,2.937.2,18.1,18.1,0,0,1,2.177.759,8.694,8.694,0,0,1,2.582,1.266A22.218,22.218,0,0,0,27.2,20.312a11.473,11.473,0,0,0-6.38-.152,3.1,3.1,0,0,1-.608.253,11.02,11.02,0,0,0-5.519,4.76c-.658,1.114-3.291,7.392-3.291,7.392s6.481-8.3,5.316-5.063a1.581,1.581,0,0,0-.152,1.063c.861-.2,1.013-1.063,1.62-1.468,1.367-.861,1.671,1.215,1.873,2.076.3,1.316.658,2.987,1.975,3.646a1.337,1.337,0,0,0,1.671-.405c.557-.608.81-.759,1.62.1a4.817,4.817,0,0,0,2.684,1.316c.506.051,1.013.152,1.519.152a4.9,4.9,0,0,1,1.924.2c1.013.354,1.924.962,2.886,1.367a6.9,6.9,0,0,0,.861.2c.506.051,1.063.051,1.62.152q1.823.228,3.646.3c1.873.1,3.747.1,5.62.152a9.03,9.03,0,0,1,2.025,0c.506.1.911.709,1.418.861a3.509,3.509,0,0,0,1.013.152,3.972,3.972,0,0,1-.1.709,6.525,6.525,0,0,0,.1,3.8c.506,1.873,1.62,5.114,1.62,5.114l.253.861a.589.589,0,0,0,.658.456,9.038,9.038,0,0,0,2.633-1.62,2.993,2.993,0,0,0,.608-.861,25.35,25.35,0,0,0,3.8-.506c1.722-.405,5.975-1.772,7.848-2.38a38.833,38.833,0,0,1-6.532,1.316c-3.494.354-4.911,0-5.316-.152a32.89,32.89,0,0,0-1.722-5.316,4.916,4.916,0,0,0-.962-1.316c2.025-.1,4.051-.3,6.076-.506.1-.152.2-.354.3-.506a5.11,5.11,0,0,0,.354-.759c.1-.253.2-.506.3-.709a3.969,3.969,0,0,0,.253-.709c.051-.2.152-.456.2-.658a2.613,2.613,0,0,0,.1-.557.186.186,0,0,1,.051-.152c-1.114-.354-2.329-.557-3.392-.861a87.07,87.07,0,0,1-8.658-2.937L51.145,35.3h0a.177.177,0,0,1,.051.1c0,.051.051.051.051.1a2.111,2.111,0,0,0,.658.759c.1.051.152.1.253.152.051,0,.1.051.152.1a.05.05,0,0,1,.051.051c.051,0,.051.051.1.1l.051.051.152.152c0,.051.051.051.1.1l.051.051.1.1.051.051c.051.1.152.2.2.3a9.17,9.17,0,0,1,1.468,3.089c.405,1.671,1.215,4.253,1.215,4.253a2.092,2.092,0,0,1-.962,1.823,14.4,14.4,0,0,1-2.127,1.114s-2.481-5.975-2.38-7.747c.051-1.215.3-1.823.3-2.633v-.506q-.076-.38-.152-.911c0-.051-.051-.152-.051-.2V35.7c0-.1-.051-.152-.051-.253h0c-.051-.1-.051-.152-.1-.253v-.051c-.051-.1-.051-.2-.1-.3v-.051c-.051-.1-.051-.2-.1-.3v-.051a.732.732,0,0,1-.1-.354v-.051c-.051-.1-.051-.2-.1-.3,0-.051,0-.051-.051-.1-.051-.1-.1-.253-.152-.354a.05.05,0,0,0-.051-.051.72.72,0,0,1-.1-.3c0-.051,0-.051-.051-.1-.051-.1-.1-.253-.152-.354,0-.051,0-.051-.051-.1a.72.72,0,0,1-.1-.3c0-.051,0-.051-.051-.1-.051-.1-.1-.253-.152-.354,0-.051,0-.051-.051-.1-.051-.1-.051-.2-.1-.3a.05.05,0,0,0-.051-.051.732.732,0,0,1-.1-.354.177.177,0,0,0-.051-.1c-.051-.1-.051-.152-.1-.253a.177.177,0,0,0-.051-.1c-.051-.1-.051-.152-.1-.253v-.051c-.2-.608-.405-1.063-.506-1.367-.962-.405-1.924-.81-2.835-1.215,0,.051-.051.152-.051.2-.051.152-.1.354-.152.557s-.152.405-.2.658c-.1.253-.2.456-.3.709s-.253.506-.354.709c-.152.253-.3.506-.405.709-.152.253-.3.456-.456.709-.152.2-.354.456-.506.658a5.543,5.543,0,0,1-.506.557,2.177,2.177,0,0,1-.506.456,2.782,2.782,0,0,1-.456.354c-.152.1-.253.2-.354.253a3.1,3.1,0,0,0-.3.253,3.1,3.1,0,0,1,.3-.253,1.719,1.719,0,0,0,.3-.3l.405-.405a4.565,4.565,0,0,0,.456-.506,5.381,5.381,0,0,0,.456-.557,7.406,7.406,0,0,0,.456-.658c.152-.2.3-.456.456-.709a5.11,5.11,0,0,0,.354-.759c.1-.253.2-.506.3-.709a3.969,3.969,0,0,0,.253-.709c.051-.2.152-.456.2-.658a2.613,2.613,0,0,0,.1-.557c0-.1.051-.2.051-.3-.861-.405-1.722-.759-2.582-1.165.051-.1.1-.152.1-.253.051-.051.051-.1.051-.2s-.1-.152-.152-.2c-.152-.1-.253-.152-.405-.253-1.063-.709-2.177-1.367-3.291-1.975a4.3,4.3,0,0,0-1.316-.557,15.335,15.335,0,0,1-1.62-.3,2.279,2.279,0,0,1-1.215-1.165,2.383,2.383,0,0,1-.2-.81,2.7,2.7,0,0,1,.152-.658c1.063.608,6.937,3.747,9.519,4.911a9.441,9.441,0,0,1,1.013.506c.658.3,1.316.608,2.025.911.051.051.152.051.2.1v.354c-.051.658.051,1.063.3,1.266.1.051.152.1.253.1a.383.383,0,0,0,.2-.051c.051.152.1.253.152.405l.709-.759a.625.625,0,0,1,.557-.405c1.367.608,2.835,1.165,4.3,1.722,1.57.608,3.139,1.215,4.709,1.772s3.19,1.114,4.76,1.671,3.139,1.063,4.608,1.519q1.519.456,2.886.911l.405.911c-1.215-.3-2.481-.608-3.7-.911a21.811,21.811,0,0,1-4.709-1.367,5.11,5.11,0,0,0-.759-.354v.1c-.051.152-.1.354-.152.557s-.152.405-.2.658c-.1.253-.2.456-.3.709s-.253.506-.354.709c-.152.253-.3.506-.405.709-.1.1-.152.253-.253.354,1.62-.152,3.291-.354,4.911-.405.557,0,1.165-.051,1.772-.051.608.051.456.456.2.861a4.222,4.222,0,0,1-.962,1.165,4.4,4.4,0,0,0-.861.81,2.108,2.108,0,0,0,1.468-.1,11.146,11.146,0,0,0,1.316-.759,8.961,8.961,0,0,1,2.481-1.063,4.316,4.316,0,0,1,1.165-.152l.557,1.316-3.7-9.468c.1-.354.658-.354.658-.354l3.7,9.62-.405-1.114h.456a44.446,44.446,0,0,1,6.835.557.387.387,0,0,1,.253.1c.2.152.152.405.1.608a1.492,1.492,0,0,0-.253.658,12.788,12.788,0,0,0,6.734-.759l-3.544-.152c.152-.051.152-.3.051-.456a.855.855,0,0,0-.506-.152c-1.62-.152-3.19-.354-4.81-.557-1.975-.3-3.9-.709-5.823-1.114l-.3-.81a.954.954,0,0,0,.405.1c1.367.405,2.734.759,3.949,1.063a32.238,32.238,0,0,0,3.443.557c1.013.1,1.924.152,2.684.152h.962a2.9,2.9,0,0,0,.709-.051,5.518,5.518,0,0,1,.608-.051H82.841a6.456,6.456,0,0,1-.962-.051,9.542,9.542,0,0,0,2.633-.152c1.468-.506,1.418-1.165,0-1.57s-3.544-.759-3.544-.759a26.023,26.023,0,0,1-2.43,1.722c.3-.2.709-.506,1.013-.759a6.453,6.453,0,0,0,1.671-3.038c.3-1.165-.861-2.582-.861-2.582a.966.966,0,0,0,.506-.152.4.4,0,0,0,.2-.405,13.415,13.415,0,0,0,.051-1.671c-.051-.456.253-.456.253-.456l.1,1.975.405.051a16.62,16.62,0,0,0-.354-1.924,2,2,0,0,0-.759-1.063l.051-.405a3.5,3.5,0,0,1,.759-1.165l3.342,7.9L80.259,20.059c.456.354.506-.456.506-.456s5.063,12.76,5.063,13.215-.557.3-.557.3l-.354-.962a2.3,2.3,0,0,1-.253.456c-.152.253-.354.658-.354.658s.1.405.2.759.506.051.506.051a1.748,1.748,0,0,0,.3.405c.2.253.861,1.063.861,1.063l1.063,3.089a4.952,4.952,0,0,0-.911,1.367c-.2.608.911-.456,1.418-.456s.81-.81.81-1.114C88.512,38.337,88.005,38.337,88.005,38.337ZM78.74,15.7a12.3,12.3,0,0,0-.253-1.316s-.405,0-1.114.051a33.11,33.11,0,0,1-3.7-.456c0-3.19,3.595-3.291,3.595-3.291a1.138,1.138,0,0,0-.354,1.165c.152.81,1.722.658,1.722.658a10.772,10.772,0,0,1,.152,1.215A6.584,6.584,0,0,1,78.74,15.7ZM9.727,5.932A14.781,14.781,0,0,0,7.448,4.666,51.934,51.934,0,0,1,1.828.717,6.2,6.2,0,0,1,3.043.261,1.51,1.51,0,0,1,4.056.514s1.823,1.418,3.19,2.532A28.986,28.986,0,0,1,9.98,5.679ZM27.246,17.679l-.051.051L15.3,10.084s-.152-.608.354-.658l11.747,7.8a1.576,1.576,0,0,1,.2-.3,4.874,4.874,0,0,1,1.266-.2l.962-.2c.456-.051.962.608.962.608a2,2,0,0,1-.253.759c-.152.3-.658.354-.658.354a1.356,1.356,0,0,0-.1-.456c-.1-.253-.456-.2-.456-.2a5.116,5.116,0,0,0-1.266-.557C27.8,17.021,27.347,17.527,27.246,17.679ZM38.081,23.35s2.835,1.57,3.241,1.924a.506.506,0,0,1,.2.557.614.614,0,0,1-.051.253s-1.468,1.57-1.722,1.873l-.051.051h0a.05.05,0,0,0-.051.051H39.5a1.515,1.515,0,0,1-.557-.152l-.051-.051-.051-.051a.05.05,0,0,1-.051-.051l-.051-.051c-.051-.051-.152-.1-.253-.2-.051,0-.051-.051-.1-.1l-.051-.051c-.051-.051-.1-.051-.152-.1a.05.05,0,0,1-.051-.051c-.051-.051-.1-.051-.152-.1l-.051-.051-.152-.152h-.051a.7.7,0,0,0-.2-.152h0c-.051-.051-.152-.1-.2-.152h0c-.456-.354-.911-.709-1.316-1.013l-.051-.051a3.148,3.148,0,0,1-1.013-1.873,3.1,3.1,0,0,1,.253-.608,2.257,2.257,0,0,1,.608-.608A4.991,4.991,0,0,1,38.081,23.35ZM35.5,22.641h.1a2.1,2.1,0,0,0-.709.557L32.917,21.73l-3.646-2.481c-.1-.2.2-.405.2-.405S35.4,22.59,35.5,22.641Zm-2.076-6.684s.2.911.2,1.013c0,.152-.557-.962-.557-.962l-.861,1.215a12.776,12.776,0,0,0-1.722-1.367L31.6,15.7l.608-.506,2.329.658Zm11.7,8.76ZM43.8,11.1a3.356,3.356,0,0,1,0-2.684c.456-1.215,2.278-2.43,3.494-1.62a4.394,4.394,0,0,1,1.316,1.975,14.94,14.94,0,0,1,.557,2.582h.658a2.387,2.387,0,0,1-.759.3c-.3-.557-.506-1.013-1.114-1.013-.506,0-1.114.456-1.671.506C45.929,11.248,44.056,11.5,43.8,11.1Zm3.038,13.62-2.329-6.835-1.823-5.063.557,1.57a6.686,6.686,0,0,1-1.418.1,1.53,1.53,0,0,1-.253.81,13.311,13.311,0,0,1,.3-1.975,8.659,8.659,0,0,1,.456-1.519l-1.013-2.38.3-.608.861.962,1.519,4.405,3.848,9.975Zm5.924-2.633c-.1.2-.557,1.013-1.114,1.975a8.631,8.631,0,0,1-2.177,2.481c-.152.1-.557-.051-.81-.1l-.051-.051-.2.2-.3.3c-.051.051-.1.152-.2.2-.1.1-.2.3-.3.3q-.228.076-.3,0c-.152-.1-.253-.506-.2-1.063v-.405a.857.857,0,0,1,.354-.861,1.745,1.745,0,0,1,.709-.405h0l1.063.2h.051l.051-.051a2.7,2.7,0,0,0,.557-.709c.2-.456,1.165-2.684,1.165-2.684v-.051l-.658-5.013a1.9,1.9,0,0,1,2.582-.354,6.941,6.941,0,0,1,.1,1.063,25.508,25.508,0,0,1-.3,2.937A5.3,5.3,0,0,0,52.765,22.084Zm10.886-9.671a3.083,3.083,0,0,1,2.38-.506,1.979,1.979,0,0,1,1.57.861,3.509,3.509,0,0,1,.152,1.013,5.1,5.1,0,0,0,.253,1.266c.1.253.152.506.253.759A8.888,8.888,0,0,0,67.2,13.881c-.051-.051-.1-.152-.2-.152a.456.456,0,0,0-.253-.051,8.154,8.154,0,0,0-3.291.506,3.227,3.227,0,0,1-.253-1.063A1.848,1.848,0,0,1,63.651,12.413Zm-1.418,6.43a3.057,3.057,0,0,1-.405-.354,3.266,3.266,0,0,0-.962-.354,24.508,24.508,0,0,1,.051-2.582,19.791,19.791,0,0,1,.81-2.38l.506,1.266a8.788,8.788,0,0,0,.051.911,4.313,4.313,0,0,0,.405,1.114c.2.506.354,1.418.506,1.772.1.354.608.354.608.354l.152.253Zm6.886,9.367a2.527,2.527,0,0,0-1.114-.709c-.557-.1-1.165.2-1.114-.354a.492.492,0,0,1,.253-.658L61.524,12.16s.3-.051.354-.2a1.336,1.336,0,0,0,.051-.354l.253.152L63.448,15l4.405,11.139c.253-.1.456-.152.608-.051.253.152.405.354.608,1.013A4.7,4.7,0,0,1,69.119,28.211Zm6.734,2.228a6.184,6.184,0,0,1-1.367.051,16.722,16.722,0,0,0,2.987-1.063c1.063-.354,2.025-.456,2.532.557C78.841,30.438,77.17,30.287,75.854,30.438Z" transform="translate(0 0)" fill="#fff"/>
    <path id="Контур_602" data-name="Контур 602" d="M141.159,75.675s-.354,1.266-.557,1.873a9.863,9.863,0,0,0-.2,2.38,4.046,4.046,0,0,0,.152,1.013s1.418-.152,2.025-.152,1.316.152.658.506c-.658.3,1.62-.051,2.532-.2l.861-.152a10.665,10.665,0,0,0-1.873-3.443,7.271,7.271,0,0,0-1.823-1.418,2.186,2.186,0,0,0-.709-.2l-.405-.354C141.868,75.422,141.311,75.372,141.159,75.675Zm1.063,2.481a11.768,11.768,0,0,1-.253-1.671c.051-.2.405-.253.759.152a20.221,20.221,0,0,1,1.62,3.089c.1.456-.405.759-1.013.81-.557,0-2.38.557-2.582.051a8.657,8.657,0,0,1-.051-1.924,5.893,5.893,0,0,1,.405-1.671,6.2,6.2,0,0,1,.253-.658s.253-.152.456.506C142.02,77.549,142.223,78.156,142.223,78.156Z" transform="translate(-69.306 -37.237)" fill="#fff"/>
    <path id="Контур_603" data-name="Контур 603" d="M64.524,74.127c-4.051,0-13.063-.658-11.949-1.367C53.638,72,46.6,72,46.6,72c.3.962,4.608,3.544,4.608,3.544l20.911-1.063S68.625,74.127,64.524,74.127Z" transform="translate(-23 -35.536)" fill="#fff"/>
    <path id="Контур_604" data-name="Контур 604" d="M112.529,77.8c-1.62.861.557,1.367,4.709.962a21.25,21.25,0,0,0,7.7-2.481s-3.848.861-5.975,1.266-3.089-.2-1.165-1.063-7.595-.405-7.595-.405S114.1,76.943,112.529,77.8Z" transform="translate(-54.397 -37.492)" fill="#fff"/>
    <path id="Контур_605" data-name="Контур 605" d="M75.249,82.331c2.127-.861-11.949-.3-11.949-.3,11.747,5.772,18.937,4.051,18.937,4.051a65.061,65.061,0,0,1-8.253-1.165C68.313,83.8,73.123,83.192,75.249,82.331Z" transform="translate(-31.244 -40.399)" fill="#fff"/>
    <path id="Контур_606" data-name="Контур 606" d="M216.524,34.946c1.114,3.19,3.139,6.987,5.013,8.709a3.183,3.183,0,0,1-2.329,1.57c-1.57,0-2.785-2.835-4.658-10.177A6.474,6.474,0,0,1,213.486,35a2.536,2.536,0,0,1-.405-.354,46.993,46.993,0,0,0-3.646,10.43,4.233,4.233,0,0,1-2.835-2.329c.456-.911.709-1.418,4.456-10.279a32.46,32.46,0,0,0,2.127-6.076,12.6,12.6,0,0,0-4.051,2.076,5.068,5.068,0,0,1-1.519-2.684c2.127-1.418,6.481-2.481,9.62-2.481,4.253,0,6.734,1.873,6.734,4.962C224.068,31.553,220.777,34.338,216.524,34.946Zm-2.734-1.873c5.367,0,9.215-2.127,9.215-5.063,0-1.772-1.266-2.734-3.949-2.734a12.172,12.172,0,0,0-1.873.152l.3.506A77.118,77.118,0,0,0,213.79,33.072Z" transform="translate(-101.987 -11.495)" fill="#fff"/>
    <path id="Контур_607" data-name="Контур 607" d="M250.344,40.229c-1.418,2.987-2.43,6.127-2.43,7.949,0,1.013.2,1.671.709,1.975a4,4,0,0,1-1.722.506c-.962,0-1.418-.658-1.418-1.975a12.72,12.72,0,0,1,1.013-4.152c-1.418,3.241-3.8,5.924-5.468,6.177-1.316-.051-2.228-1.367-2.228-3.241,0-4,3.848-9.418,6.734-9.57a3.79,3.79,0,0,1,2.025,2.127c-2.835.456-6.38,5.165-6.38,8.456a.672.672,0,0,0,.354.658c1.063-.2,2.329-1.722,4.253-4.911.759-1.266,1.823-3.241,2.582-4.861C249.129,39.267,250.4,39.875,250.344,40.229Z" transform="translate(-117.883 -18.702)" fill="#fff"/>
    <path id="Контур_608" data-name="Контур 608" d="M375.415,39.427c-1.165,3.089-3.747,11.038-8.405,11.19-1.316.051-2.329-1.215-2.481-3.038-.354-3.949.557-9.873,3.392-10.279.76.1,2.127.658,2.279,1.316-2.684,1.873-3.544,5.62-3.241,8.911.051.354,0,1.114.557,1.215,1.063-.051,1.519-1.468,3.139-4.81.658-1.316,1.013-3.646,1.671-5.316C373.035,38.566,375.415,39.072,375.415,39.427Z" transform="translate(-179.916 -18.406)" fill="#fff"/>
    <path id="Контур_609" data-name="Контур 609" d="M397.744,40.229c-1.418,2.987-2.43,6.127-2.43,7.949,0,1.013.2,1.671.709,1.975a4,4,0,0,1-1.721.506c-.962,0-1.418-.658-1.418-1.975a12.721,12.721,0,0,1,1.013-4.152c-1.418,3.241-3.8,5.924-5.468,6.177-1.316-.051-2.228-1.367-2.228-3.241,0-4,3.848-9.418,6.734-9.57a3.79,3.79,0,0,1,2.025,2.127c-2.835.456-6.38,5.165-6.38,8.456a.672.672,0,0,0,.354.658c1.063-.2,2.329-1.722,4.253-4.911.759-1.266,1.823-3.241,2.582-4.861C396.529,39.267,397.744,39.875,397.744,40.229Z" transform="translate(-190.65 -18.702)" fill="#fff"/>
    <path id="Контур_610" data-name="Контур 610" d="M263.911,48.591A1.593,1.593,0,0,0,263,47.427a130.8,130.8,0,0,1,3.8-15.8,13.894,13.894,0,0,0-2.38.152.963.963,0,0,1-.253-.658,19.487,19.487,0,0,1,2.937-.608c1.671-5.418,4.557-8.81,7.443-8.81.405,0,.861.1,1.063.1a2.652,2.652,0,0,1,1.316-.506,1.363,1.363,0,0,1,.81.354,8.959,8.959,0,0,0-.861,2.278,5.854,5.854,0,0,1-1.418,2.582c-.2,0-.3-.2-.3-.759-.051-.405-.1-.759-.152-1.114a1.734,1.734,0,0,1-.2-.911c0-.2.051-.456.152-1.165-1.165,0-3.038,3.139-4.557,7.747l2.228-.1a3.949,3.949,0,0,1,.354,1.57l-2.937-.152c-2.684,8-4.81,14.937-5.367,17.975A1.426,1.426,0,0,1,263.911,48.591Z" transform="translate(-129.83 -10.507)" fill="#fff"/>
    <path id="Контур_611" data-name="Контур 611" d="M283.811,35.727a4.23,4.23,0,0,1-.354-1.57c.911.051,1.772.152,2.532.152,1.063-2.127,2.633-4.405,3.19-4.709a5.882,5.882,0,0,1,2.785.962,30.88,30.88,0,0,0-2.633,3.9c.709,0,1.418-.051,2.177-.1a1.16,1.16,0,0,1,.3.759,11.264,11.264,0,0,1-3.19.557c-1.772,3.443-2.835,6.886-2.835,9.063,0,.81.3,1.215.861,1.316a5.548,5.548,0,0,0,2.785-1.165,2.985,2.985,0,0,1,.2.405,7.925,7.925,0,0,1-2.937,1.975c-1.772-.051-3.8-1.57-3.8-2.835,0-1.722,1.013-5.367,2.329-8.608h-1.418Z" transform="translate(-139.654 -14.605)" fill="#fff"/>
    <path id="Контур_612" data-name="Контур 612" d="M312.362,44.253c.152-.709.911-3.494,2.532-4.253a4.569,4.569,0,0,1,2.481,1.772c-1.62,1.823-2.127,3.7-3.038,6.076a12.93,12.93,0,0,0-.81,2.937c0,.658,0,.861-.152.861a2.582,2.582,0,0,1-1.975-2.278A43.374,43.374,0,0,1,312.362,44.253Z" transform="translate(-153.723 -19.739)" fill="#fff"/>
    <path id="Контур_613" data-name="Контур 613" d="M321.4,30.354a1.375,1.375,0,0,1-.3-.861A13.294,13.294,0,0,1,321.91,26a5.788,5.788,0,0,1,3.241,1.873,28.95,28.95,0,0,0-3.038,3.7c-.4-.1-.81-.405-.81-.709C321.353,30.709,321.353,30.557,321.4,30.354Z" transform="translate(-158.512 -12.827)" fill="#fff"/>
    <path id="Контур_614" data-name="Контур 614" d="M300.7,60.735a.7.7,0,0,1-.3-.557,6.193,6.193,0,0,1,.81-2.278,7.2,7.2,0,0,1,3.241,1.215,21.144,21.144,0,0,0-3.038,2.43c-.405-.051-.81-.3-.81-.456A.732.732,0,0,1,300.7,60.735Z" transform="translate(-148.293 -28.576)" fill="#fff"/>
    <path id="Контур_615" data-name="Контур 615" d="M352,60.735a.7.7,0,0,1-.3-.557,6.193,6.193,0,0,1,.81-2.278,7.2,7.2,0,0,1,3.241,1.215,21.148,21.148,0,0,0-3.038,2.43c-.405-.051-.81-.3-.81-.456A.732.732,0,0,1,352,60.735Z" transform="translate(-173.618 -28.576)" fill="#fff"/>
    <path id="Контур_616" data-name="Контур 616" d="M329.889,38.981c-.81,1.975-3.595,5.722-3.8,7.392,1.114-1.215,2.937-3.443,3.544-4.1,1.367-1.418,3.9-4.1,5.62-4.1a2.23,2.23,0,0,1,1.873,1.418c0,.1-.3.1-.759.658-.962,1.266-2.785,4.76-2.785,6.987,0,.861.253,1.063.658,1.063.354,0,.861-.253,1.114-.253a.725.725,0,0,1,.253.557,4.572,4.572,0,0,1-2.278,1.114c-2.076,0-2.532-1.266-2.532-2.835,0-.861.253-1.975,1.468-4.81a7.2,7.2,0,0,0-2.177,1.519,34.045,34.045,0,0,0-4.3,5.013,9.286,9.286,0,0,1-1.772,2.177A2.782,2.782,0,0,1,322.8,48.7a23.086,23.086,0,0,1,2.025-7.089c1.367-3.139,2.633-5.013,2.937-5.114A3.685,3.685,0,0,1,329.889,38.981Z" transform="translate(-159.351 -18.011)" fill="#fff"/>
    <path id="Контур_617" data-name="Контур 617" d="M235.661,51.057l-3.949-1.62a4.731,4.731,0,0,1-2.633-2.684l-1.519-.861.354-2.38a10.479,10.479,0,0,1,.2-1.114,6.919,6.919,0,0,1-.962.1,4.973,4.973,0,0,1-2.937-.962,6.963,6.963,0,0,1-2.43.962l-.354.051h-.354a4.651,4.651,0,0,1-1.418-.253,6.508,6.508,0,0,1-4.354,1.975c-3.089,0-4.658-2.43-5.772-5.367-.253.81-.405,1.62-.608,2.43l-.709,3.443-3.443-.759a7.451,7.451,0,0,1-5.063-4L198.8,38.4l.861-1.671c.405-.81.608-1.215,4.152-9.57l-.506-.354a8.174,8.174,0,0,1-2.987-5.215l-.2-2.025,1.671-1.165c2.937-2.025,8.152-3.089,11.595-3.089,7.19,0,9.924,4.152,10.177,7.9a6.972,6.972,0,0,1,1.975-.456l.557-.051.506.152a5.775,5.775,0,0,1,2.38,1.367,8.481,8.481,0,0,1,1.823.405l.456-.152a9.659,9.659,0,0,1,1.57-.405c2.329-5.823,5.975-9.165,10.025-9.165h.405a5.509,5.509,0,0,1,2.025-.405,4.754,4.754,0,0,1,2.785.962l2.633,1.823-1.013,1.722a6.868,6.868,0,0,1,3.342,1.823l1.873,2.177-1.823,2.278a4.757,4.757,0,0,1,.658,2.329v2.025a9.583,9.583,0,0,1,3.595-5.114,5.267,5.267,0,0,1-.1-.759,16.866,16.866,0,0,1,1.063-4.76l.861-2.177h2.329a9.009,9.009,0,0,1,6.127,3.392l1.62,2.43-.354.3a7.118,7.118,0,0,1,1.873,1.823,6.675,6.675,0,0,1,3.19-.911,5.641,5.641,0,0,1,4.962,3.291l.405.759v.861a3.473,3.473,0,0,1-1.62,2.937c-.2.3-.456.759-.759,1.266a8.017,8.017,0,0,1,2.228.405c.152-3.342,1.165-9.975,6.43-10.734l.557-.051.506.1a8.124,8.124,0,0,1,3.19,1.316l.3-.051a9.767,9.767,0,0,1,5.165,1.215,7.826,7.826,0,0,1,4.81-2.278l.557-.051.506.152a5.775,5.775,0,0,1,2.38,1.367,6.713,6.713,0,0,1,4.051,1.823,3.925,3.925,0,0,1,1.013,2.835l-.1.709-.253.506a22.778,22.778,0,0,0-2.076,6.025l4,2.228-4.962,3.089a7.2,7.2,0,0,1-3.544,1.013,4.973,4.973,0,0,1-2.937-.962,6.963,6.963,0,0,1-2.43.962l-.354.051h-.354a5.309,5.309,0,0,1-4.405-2.633,8.4,8.4,0,0,1-5.975,2.886h-.152a5.488,5.488,0,0,1-3.9-1.671c-.506.405-1.063.861-1.316,1.063L278.8,43.817l-2.076-.253a4.325,4.325,0,0,1-2.937-1.57,5.669,5.669,0,0,1-1.772.3,5.916,5.916,0,0,1-4.911-2.329,9.124,9.124,0,0,1-2.734,2.937l-1.721.962-.608-.354-2.127,2.278.405-3.291a2.478,2.478,0,0,1-.658-.608,3.973,3.973,0,0,1-2.025.608,5.849,5.849,0,0,1-2.886-1.013,9.788,9.788,0,0,0-.962.81l-1.063,1.519-2.076-.253a5.084,5.084,0,0,1-2.734-1.266,5.7,5.7,0,0,1-2.582.962h-.456a7.958,7.958,0,0,1-6.582-4.1c-1.114,3.646-1.873,6.329-2.127,7.747Zm12.456-18.582a10.357,10.357,0,0,1,.658-1.57l.1-.2.2-.051a9.132,9.132,0,0,0,2.177-.557l1.722-.658V27.563a3.906,3.906,0,0,0-.658-2.127l-.152-.253,1.772-2.228-1.468-1.671a7.313,7.313,0,0,0-3.443-1.722l-.506-.1,1.165-2.025-2.025-1.418a4.056,4.056,0,0,0-2.329-.81,4.618,4.618,0,0,0-1.823.405l-.1.051h-.557c-3.8,0-7.241,3.241-9.418,8.911l-.051.2-.2.051c-.76.152-1.316.3-1.671.405l-.709.3-.152-.051a4.957,4.957,0,0,0-1.823-.405h-.152l-.1-.1a5.613,5.613,0,0,0-2.127-1.266l-.405-.1h-.405a6.7,6.7,0,0,0-2.228.608l-.557.253v-.608l.354-.051h-.354c0-3.494-2.481-7.646-9.418-7.646-3.291,0-8.354,1.013-11.139,2.937l-1.316.911.152,1.57a7.689,7.689,0,0,0,2.684,4.658l1.013.709-.1.3c-3.646,8.608-3.848,9.063-4.3,9.873l-.658,1.266.709,1.266a6.981,6.981,0,0,0,4.557,3.646l2.684.608.557-2.684a31.489,31.489,0,0,1,.962-3.595l.354-1.063.354,1.063c1.468,4.2,3.038,5.924,5.468,5.924a5.871,5.871,0,0,0,4-1.924l.152-.2.253.1a6.411,6.411,0,0,0,1.418.3h.253l.253-.051a5.209,5.209,0,0,0,2.329-1.013l.253-.152.2.2a4.106,4.106,0,0,0,2.633.962,4.706,4.706,0,0,0,1.367-.2l.557-.152-.1.557c-.1.557-.2,1.063-.253,1.62l-.3,1.823,1.316.759.051.152a3.972,3.972,0,0,0,2.228,2.38l3.038,1.266.608-3.241a88.643,88.643,0,0,1,2.481-8.911l.405-1.316.3,1.367c.608,2.684,3.747,4.506,6.279,4.608h.354a5.936,5.936,0,0,0,2.481-1.013l.3-.2.2.253a3.7,3.7,0,0,0,2.481,1.266l1.62.2.861-1.215c.253-.2.759-.658,1.316-1.063l.253-.2.253.2a4.63,4.63,0,0,0,2.633,1.063,2.826,2.826,0,0,0,1.823-.658l.3-.253.253.3a3.8,3.8,0,0,0,.962.861l.2.152-.2,1.367.911-.962.759.456,1.316-.759a9.03,9.03,0,0,0,2.633-2.937l.405-.81.3.506a4.9,4.9,0,0,0,4.557,2.43,4.55,4.55,0,0,0,1.722-.354l.253-.1.152.253a3.566,3.566,0,0,0,2.633,1.468l1.62.2.861-1.215c.3-.3,1.114-.911,1.671-1.367l.3-.2.253.253A4.8,4.8,0,0,0,285.13,42.1h.152a7.924,7.924,0,0,0,5.823-3.038l.354-.405.253.506a4.844,4.844,0,0,0,4.051,2.684h.253l.253-.051a5.209,5.209,0,0,0,2.329-1.013l.253-.152.2.2a4.106,4.106,0,0,0,2.633.962,5.994,5.994,0,0,0,3.139-.911l3.848-2.43-3.291-1.823v-.253a22.069,22.069,0,0,1,2.177-6.532l.2-.456.051-.506a2.852,2.852,0,0,0-.81-2.228,5.891,5.891,0,0,0-3.646-1.57h-.152l-.1-.1a5.613,5.613,0,0,0-2.127-1.266l-.405-.1h-.405a7.647,7.647,0,0,0-4.557,2.278l-.253.2-.253-.2a9.325,9.325,0,0,0-4.911-1.215l-.608.051-.1-.1a7.533,7.533,0,0,0-2.987-1.266l-.405-.051-.405.051c-5.063.709-5.721,8.2-5.772,10.481v.506l-.506-.152a8.626,8.626,0,0,0-2.481-.506h-1.215l.253-.557a9.772,9.772,0,0,1,1.114-1.975l.1-.1a2.663,2.663,0,0,0,1.316-2.329V28.07l-.3-.557a4.9,4.9,0,0,0-4.253-2.886,5.729,5.729,0,0,0-3.139,1.013l-.3.2-.2-.3a6.09,6.09,0,0,0-2.278-2.127l-.456-.253.608-.557L266.9,20.728a8.1,8.1,0,0,0-5.468-3.089H259.61l-.658,1.671a15.143,15.143,0,0,0-1.013,4.506,6.464,6.464,0,0,0,.1.861l.051.3-.253.152c-2.532,1.367-3.494,4.658-3.8,5.975-.253,1.165-.456,2.076-.557,2.785l-.1.405-.405-.1a6.811,6.811,0,0,0-2.025-.354h-1.519l-.3.506m.2-1.367h1.722a7.14,7.14,0,0,1,1.873.3c.152-.658.3-1.418.506-2.329a7.8,7.8,0,0,1,.253-.861l-2.127.81a13.046,13.046,0,0,1-2.127.557,7.788,7.788,0,0,0-.405.962Z" transform="translate(-98.136 -7.15)" fill="#fff"/>
    <g id="Сгруппировать_9" data-name="Сгруппировать 9" transform="translate(98.79 36.911)">
      <path id="Контур_618" data-name="Контур 618" d="M224.518,76.9C207.86,78.065,195.1,79.28,195.1,79.28s13.519-.152,29.57-.456A6.307,6.307,0,0,1,224.518,76.9Z" transform="translate(-195.1 -74.866)" fill="#fff"/>
      <path id="Контур_619" data-name="Контур 619" d="M336.358,73.246c-20.506-.81-41.823-.152-60.152.861a17.156,17.156,0,0,1-.506,2.43C315.65,75.777,366.384,74.461,336.358,73.246Z" transform="translate(-234.89 -72.882)" fill="#fff"/>
    </g>
  </g>
</svg>
