<svg id="logo4" xmlns="http://www.w3.org/2000/svg" width="144.771" height="144.771" viewBox="0 0 144.771 144.771">
  <path id="Контур_774" data-name="Контур 774" d="M0,0H144.771V144.771H0Z" fill="#fff" fill-rule="evenodd"/>
  <path id="Контур_775" data-name="Контур 775" d="M18.442,103.028c-1.888-1.183-3.28-5.265-3.28-10.116,0-.178,0-.354.005-.529l0,0C9.916,91.56,6.12,89.3,6.023,86.624l-.015.032a8.59,8.59,0,0,0-2.019,5.412c0,5.791,6.356,10.535,14.419,10.955ZM1.56,92.489c0-6.479,8.063-11.732,18.01-11.732s18.01,5.254,18.01,11.732-8.063,11.733-18.01,11.733S1.56,98.969,1.56,92.489ZM19.57,82.45c1.92,0,3.554,2.913,4.159,6.978l0-.007c3.737-.581,6.352-1.923,6.352-3.484,0-2.095-4.707-3.791-10.513-3.791s-10.512,1.7-10.512,3.791c0,1.561,2.615,2.9,6.351,3.484l0,.007C16.017,85.363,17.651,82.45,19.57,82.45Zm1.163,20.572c8.063-.42,14.42-5.164,14.42-10.955a8.594,8.594,0,0,0-2.019-5.412l-.016-.032c-.1,2.675-3.892,4.937-9.146,5.762l0,0c0,.175.005.351.005.529,0,4.851-1.392,8.933-3.28,10.116ZM19.57,89.729q1.25,0,2.5-.107h0c-.4-2.6-1.365-4.444-2.5-4.444s-2.1,1.839-2.5,4.444h0q1.245.108,2.5.107Zm0,9.648c1.446,0,2.626-3.009,2.688-6.781l.008,0a29.377,29.377,0,0,1-5.39,0l.008,0C16.945,96.369,18.125,99.377,19.57,99.377Zm73.891-6.888a8.968,8.968,0,1,1,8.967,8.967,8.968,8.968,0,0,1-8.967-8.967Zm8.967,5.679c2.765,0,5.008-2.543,5.008-5.68s-2.243-5.679-5.008-5.679-5.007,2.543-5.007,5.679S99.663,98.168,102.428,98.168Zm19.144-10.91v13.791h-3.779V87.258h-5.27V84.141h14.32v3.118Zm9.841,9.987,0,0-1.45,3.8h-4.414l6.977-16.909h4.7L144.2,101.05h-4.412l-1.45-3.8,0,0Zm3.462-2.854h2.376L134.89,88.2h-.032L132.5,94.392h2.377ZM51.924,87.258v13.791H48.145V87.258H42.874V84.141h14.32v3.118H51.924Zm6.238,5.231a8.968,8.968,0,1,1,8.968,8.967A8.968,8.968,0,0,1,58.161,92.489Zm8.968,5.679c2.765,0,5.007-2.543,5.007-5.68S69.894,86.81,67.13,86.81s-5.007,2.543-5.007,5.679S64.364,98.168,67.13,98.168Zm17.648,2.881h1.916v-6.42l6.592-10.489H88.874l-4.1,7.107-4.094-7.107H76.272l6.591,10.489v6.42h1.915Z" transform="translate(-0.388 -20.104)" fill="#cc2229" fill-rule="evenodd"/>
</svg>
