<svg xmlns="http://www.w3.org/2000/svg" width="101.1" height="83.274" viewBox="0 0 101.1 83.274">
  <g id="pic1" transform="translate(-451.4 -1217.991)">
    <g id="XMLID_17_" transform="translate(452.9 1219.492)">
      <path id="XMLID_25_" d="M520.75,1286.315h23.375a25.27,25.27,0,0,0,21.565-11.989,5.715,5.715,0,0,0,.829-2.865h0a2,2,0,0,0-1.961-1.96H516" transform="translate(-468.42 -1231.792)" fill="none" stroke="#fff" stroke-linecap="round" stroke-miterlimit="10" stroke-width="3"/>
      <path id="XMLID_24_" d="M499.4,1268.964l5.655-24.808a4.156,4.156,0,0,1,4.977-3.091l3.393.829a4.156,4.156,0,0,1,3.092,4.977l-1.583,6.862" transform="translate(-464.337 -1224.771)" fill="none" stroke="#fff" stroke-linecap="round" stroke-miterlimit="10" stroke-width="3"/>
      <path id="XMLID_23_" d="M523.192,1226.209a6.452,6.452,0,1,0-6.711,6.183A6.474,6.474,0,0,0,523.192,1226.209Z" transform="translate(-467.016 -1219.492)" fill="none" stroke="#fff" stroke-miterlimit="10" stroke-width="3"/>
      <path id="XMLID_22_" d="M513.1,1250.9l4.6,4.977c1.885,2.036,4.449,2.262,7.239,2.262h8.822" transform="translate(-467.707 -1227.218)" fill="none" stroke="#fff" stroke-linecap="round" stroke-miterlimit="10" stroke-width="3"/>
      <g id="XMLID_19_" transform="translate(35.04 30.921)">
        <line id="XMLID_21_" x1="18.398" y2="31.669" transform="translate(12.539)" fill="none" stroke="#fff" stroke-linecap="round" stroke-miterlimit="10" stroke-width="3"/>
        <path id="XMLID_20_" d="M504.6,1304.183l-4.524,7.842a5.09,5.09,0,0,0,1.885,7.013l.3.226.3.226a5.09,5.09,0,0,0,7.013-1.885l4.524-7.842-2.262-7.163Z" transform="translate(-499.37 -1270.855)" fill="none" stroke="#fff" stroke-linecap="round" stroke-miterlimit="10" stroke-width="3"/>
      </g>
      <path id="XMLID_18_" d="M504.778,1269.6l-.3,1.131c-.9,3.393-3.469,5.429-7.54,5.806h0c-8.9.829-12.743-1.734-14.4-4a7.363,7.363,0,0,0-6.032-2.941H454.86a2,2,0,0,0-1.96,1.96h0a5.31,5.31,0,0,0,.829,2.865,25.441,25.441,0,0,0,21.565,11.989h22.319" transform="translate(-452.9 -1231.817)" fill="none" stroke="#fff" stroke-linecap="round" stroke-miterlimit="10" stroke-width="3"/>
    </g>
    <path id="XMLID_16_" d="M483.432,1308.67c-1.508-1.583-2.564-3.77-5.429-3.77-4.6,0-4.6,5.5-9.124,5.5-4.6,0-4.6-5.5-9.124-5.5-3.016,0-4.072,2.337-5.655,4" transform="translate(-0.295 -21.007)" fill="none" stroke="#fff" stroke-linecap="round" stroke-miterlimit="10" stroke-width="3"/>
    <path id="XMLID_15_" d="M565.708,1306.483c-1.583,1.659-2.639,3.921-5.58,3.921-4.6,0-4.6-5.5-9.124-5.5-4.6,0-4.6,5.5-9.124,5.5-4.6,0-4.6-5.5-9.124-5.5-3.167,0-4.147,2.639-5.957,4.223" transform="translate(-18.177 -21.007)" fill="none" stroke="#fff" stroke-linecap="round" stroke-miterlimit="10" stroke-width="3"/>
  </g>
</svg>
