<svg xmlns="http://www.w3.org/2000/svg" width="56.005" height="76.211" viewBox="0 0 56.005 76.211">
  <g id="pic2" transform="translate(-1023.691 -466.8)">
    <g id="XMLID_2799_" transform="translate(1048.243 503.723)">
      <line id="XMLID_2839_" y1="4.164" transform="translate(8.899 3.879)" fill="none" stroke="#fff" stroke-linecap="round" stroke-miterlimit="10" stroke-width="3"/>
      <line id="XMLID_2838_" y1="11.922" transform="translate(4.449)" fill="none" stroke="#fff" stroke-linecap="round" stroke-miterlimit="10" stroke-width="3"/>
      <line id="XMLID_2821_" y1="4.164" transform="translate(0 3.879)" fill="none" stroke="#fff" stroke-linecap="round" stroke-miterlimit="10" stroke-width="3"/>
    </g>
    <path id="XMLID_2802_" d="M1094.893,574.9l6.1,1.882a2.5,2.5,0,0,1,1.939,2.339,18.5,18.5,0,0,1-2.168,7.13,2.5,2.5,0,0,1-2.909.856l-15.059-4.62" transform="translate(-24.746 -45.793)" fill="none" stroke="#fff" stroke-linecap="round" stroke-miterlimit="10" stroke-width="3"/>
    <path id="XMLID_2800_" d="M1033.241,565.608l-6.1-1.882a2.5,2.5,0,0,1-1.939-2.339,18.5,18.5,0,0,1,2.167-7.13,2.5,2.5,0,0,1,2.909-.856l13.519,4.107" transform="translate(0 -36.502)" fill="none" stroke="#fff" stroke-linecap="round" stroke-miterlimit="10" stroke-width="3"/>
    <path id="XMLID_2801_" d="M1030.275,577.858l45.976-14.032a2.5,2.5,0,0,0,1.939-2.339,18.505,18.505,0,0,0-2.168-7.13,2.5,2.5,0,0,0-2.909-.856l-45.976,14.032a2.5,2.5,0,0,0-1.939,2.339,18.505,18.505,0,0,0,2.168,7.13A2.524,2.524,0,0,0,1030.275,577.858Z" transform="translate(0 -36.545)" fill="none" stroke="#fff" stroke-linecap="round" stroke-miterlimit="10" stroke-width="3"/>
    <path id="XMLID_2803_" d="M1075.947,513.021s14.26-23.273-9.583-35.309a13.982,13.982,0,0,1,.513,15.744s-.4-20.136-21.847-25.155c0,0,11.865,11.465,0,31.145,0,0-3.936-6.788.742-15.116,0,0-15.972,8.328-9.754,28.692" transform="translate(-4.032 0)" fill="none" stroke="#fff" stroke-linecap="round" stroke-linejoin="round" stroke-miterlimit="10" stroke-width="3"/>
  </g>
</svg>
