<svg xmlns="http://www.w3.org/2000/svg" width="21.942" height="22.897" viewBox="0 0 21.942 22.897">
  <g id="terms-icon5" transform="translate(-1013.1 -287)">
    <g id="Сгруппировать_50" data-name="Сгруппировать 50" transform="translate(1019.76 302.057)">
      <path id="Контур_727" data-name="Контур 727" d="M1060.8,377.8a3.3,3.3,0,0,1,.577-4.461,3.689,3.689,0,0,0,1.172-2.642s4.094,3.9,1.225,7.086" transform="translate(-1058.19 -370.7)" fill="none" stroke="#344154" stroke-linecap="round" stroke-linejoin="round" stroke-miterlimit="10" stroke-width="1"/>
      <path id="Контур_728" data-name="Контур 728" d="M1084.4,380.69a2.17,2.17,0,0,0,1.277-1.19s2.222,2.869.455,5.564" transform="translate(-1078.173 -377.96)" fill="none" stroke="#344154" stroke-linecap="round" stroke-linejoin="round" stroke-miterlimit="10" stroke-width="1"/>
      <path id="Контур_729" data-name="Контур 729" d="M1051.73,382.715a2.176,2.176,0,0,1-1.557-1.015s-2.589,2.729-.63,5.214" transform="translate(-1048.81 -379.775)" fill="none" stroke="#344154" stroke-linecap="round" stroke-linejoin="round" stroke-miterlimit="10" stroke-width="1"/>
    </g>
    <path id="Контур_730" data-name="Контур 730" d="M1041.02,319.225v.525a5.319,5.319,0,1,0,10.637,0v-.56a.629.629,0,0,0,.4-.577h0a.62.62,0,0,0-.612-.612h-10.235a.62.62,0,0,0-.612.612h0a.62.62,0,0,0,.612.612h2.047" transform="translate(-22.276 -25.164)" fill="none" stroke="#344154" stroke-linecap="round" stroke-linejoin="round" stroke-miterlimit="10" stroke-width="1"/>
    <path id="Контур_731" data-name="Контур 731" d="M1057.833,291.717a4.216,4.216,0,1,0-8.433,0" transform="translate(-29.537)" fill="none" stroke="#344154" stroke-linecap="round" stroke-linejoin="round" stroke-miterlimit="10" stroke-width="1"/>
    <line id="Линия_79" data-name="Линия 79" y1="14.469" transform="translate(1014.877 288.655)" fill="none" stroke="#344154" stroke-linecap="round" stroke-linejoin="round" stroke-miterlimit="10" stroke-width="1"/>
    <line id="Линия_80" data-name="Линия 80" x2="7.541" transform="translate(1027.002 288.655)" fill="none" stroke="#344154" stroke-linecap="round" stroke-linejoin="round" stroke-miterlimit="10" stroke-width="1"/>
    <line id="Линия_81" data-name="Линия 81" x2="7.558" transform="translate(1013.6 288.655)" fill="none" stroke="#344154" stroke-linecap="round" stroke-linejoin="round" stroke-miterlimit="10" stroke-width="1"/>
    <line id="Линия_82" data-name="Линия 82" y1="14.469" transform="translate(1033.283 288.655)" fill="none" stroke="#344154" stroke-linecap="round" stroke-linejoin="round" stroke-miterlimit="10" stroke-width="1"/>
    <path id="Контур_732" data-name="Контур 732" d="M1014.8,382.771v-5a1.06,1.06,0,0,1,1.067-1.067h0a1.06,1.06,0,0,1,1.067,1.067v5" transform="translate(-0.99 -73.594)" fill="none" stroke="#344154" stroke-linecap="round" stroke-linejoin="round" stroke-miterlimit="10" stroke-width="1"/>
    <path id="Контур_733" data-name="Контур 733" d="M1120,382.771v-5a1.06,1.06,0,0,1,1.067-1.067h0a1.06,1.06,0,0,1,1.067,1.067v5" transform="translate(-87.784 -73.594)" fill="none" stroke="#344154" stroke-linecap="round" stroke-linejoin="round" stroke-miterlimit="10" stroke-width="1"/>
  </g>
</svg>
