<svg xmlns="http://www.w3.org/2000/svg" width="25.285" height="18.063" viewBox="0 0 25.285 18.063">
  <g id="terms-icon6" transform="translate(-1565.1 -487.9)">
    <path id="XMLID_2834_" d="M1675.591,508.28h-1.5a.3.3,0,0,1-.289-.289v-1.5a.3.3,0,0,1,.289-.289h1.5a.3.3,0,0,1,.289.289v1.5A.3.3,0,0,1,1675.591,508.28Z" transform="translate(-87.362 -14.372)" fill="none" stroke="#344154" stroke-linecap="round" stroke-linejoin="round" stroke-miterlimit="10" stroke-width="1"/>
    <path id="XMLID_2699_" d="M1573.727,499.1h-6.259a1.858,1.858,0,0,0-1.868,1.868v11.266a1.858,1.858,0,0,0,1.868,1.868h20.549a1.857,1.857,0,0,0,1.868-1.868V500.968a1.857,1.857,0,0,0-1.868-1.868h-6.259" transform="translate(0 -8.639)" fill="none" stroke="#344154" stroke-linecap="round" stroke-linejoin="round" stroke-miterlimit="10" stroke-width="1"/>
    <circle id="XMLID_2698_" cx="5.084" cy="5.084" r="5.084" stroke-width="1" transform="translate(1571.627 494.17) rotate(-13.286)" stroke="#344154" stroke-linecap="round" stroke-linejoin="round" stroke-miterlimit="10" fill="none"/>
    <path id="XMLID_2695_" d="M1617.073,529.146a2.773,2.773,0,1,1,2.773-2.773A2.774,2.774,0,0,1,1617.073,529.146Z" transform="translate(-39.321 -28.421)" fill="none" stroke="#344154" stroke-linecap="round" stroke-linejoin="round" stroke-miterlimit="10" stroke-width="1"/>
    <line id="XMLID_2694_" x1="7.414" stroke-width="1" transform="translate(1565.6 496.084)" stroke="#344154" stroke-linecap="round" stroke-linejoin="round" stroke-miterlimit="10" fill="none"/>
    <line id="XMLID_2693_" x2="7.357" stroke-width="1" transform="translate(1582.528 496.084)" stroke="#344154" stroke-linecap="round" stroke-linejoin="round" stroke-miterlimit="10" fill="none"/>
    <path id="XMLID_2692_" d="M1614.374,491.4l-1.656-3h-5.681l-1.637,3" transform="translate(-32.135 0)" fill="none" stroke="#344154" stroke-linecap="round" stroke-linejoin="round" stroke-miterlimit="10" stroke-width="1"/>
    <line id="XMLID_2691_" x2="2.234" stroke-width="1" transform="translate(1584.223 489.421)" stroke="#344154" stroke-linecap="round" stroke-linejoin="round" stroke-miterlimit="10" fill="none"/>
    <line id="XMLID_2690_" x1="2.253" stroke-width="1" transform="translate(1569.028 489.421)" stroke="#344154" stroke-linecap="round" stroke-linejoin="round" stroke-miterlimit="10" fill="none"/>
  </g>
</svg>
