<svg xmlns="http://www.w3.org/2000/svg" width="30.176" height="14.331" viewBox="0 0 30.176 14.331">
  <g id="terms-icon2" transform="translate(-1377.4 -870.3)">
    <path id="XMLID_3043_" d="M1388.123,880a2.74,2.74,0,0,1,2.74,2.74h2.822V870.8H1377.9v11.94h7.463" transform="translate(0 0)" fill="none" stroke="#344154" stroke-linecap="round" stroke-miterlimit="10" stroke-width="1"/>
    <circle id="XMLID_2713_" cx="1.39" cy="1.39" r="1.39" transform="translate(1401.556 881.35)" fill="none" stroke="#344154" stroke-linecap="round" stroke-miterlimit="10" stroke-width="1"/>
    <circle id="XMLID_3058_" cx="1.39" cy="1.39" r="1.39" transform="translate(1386.733 881.35)" fill="none" stroke="#344154" stroke-linecap="round" stroke-miterlimit="10" stroke-width="1"/>
    <line id="XMLID_2860_" x1="3.005" transform="translate(1396.689 875.155)" fill="none" stroke="#344154" stroke-linecap="round" stroke-miterlimit="10" stroke-width="1"/>
    <path id="XMLID_3102_" d="M1455.1,918.54h6.522a2.74,2.74,0,0,1,2.74-2.74" transform="translate(-61.416 -35.799)" fill="none" stroke="#344154" stroke-linecap="round" stroke-miterlimit="10" stroke-width="1"/>
    <path id="XMLID_3048_" d="M1467.122,882.74h.838a.528.528,0,0,0,.532-.532h0a3.9,3.9,0,0,0-3.905-3.905h-.532a2.61,2.61,0,0,1-2.045-.961l-1.84-2.208h1.677a.5.5,0,0,0,.45-.716c-.572-1.227-2.331-3.619-7.2-3.619" transform="translate(-61.416 0)" fill="none" stroke="#344154" stroke-linecap="round" stroke-miterlimit="10" stroke-width="1"/>
    <path id="XMLID_3033_" d="M1422.135,881.1h-3.108a.323.323,0,0,0-.327.327v3.108a.323.323,0,0,0,.327.327h3.108a.323.323,0,0,0,.327-.327v-3.108A.336.336,0,0,0,1422.135,881.1Z" transform="translate(-32.458 -8.194)" fill="none" stroke="#344154" stroke-linecap="round" stroke-miterlimit="10" stroke-width="1"/>
    <path id="XMLID_3057_" d="M1388.6,888.872v-7.463a.41.41,0,0,1,.409-.409h3.128a.41.41,0,0,1,.409.409v7.463" transform="translate(-8.512 -8.115)" fill="none" stroke="#344154" stroke-linecap="round" stroke-miterlimit="10" stroke-width="1"/>
    <path id="XMLID_113_" d="M1469.5,898.3v1.963a.161.161,0,0,0,.164.163h3.087" transform="translate(-72.872 -21.878)" fill="none" stroke="#344154" stroke-linecap="round" stroke-miterlimit="10" stroke-width="1"/>
  </g>
</svg>
