<svg xmlns="http://www.w3.org/2000/svg" width="23.912" height="22.646" viewBox="0 0 23.912 22.646">
  <g id="terms-icon3" transform="translate(-454.135 -1394.798)">
    <g id="XMLID_2966_" transform="translate(459.816 1405.713)">
      <line id="XMLID_2974_" y1="6.486" transform="translate(11.337 4.746)" fill="none" stroke="#344154" stroke-linecap="round" stroke-miterlimit="10" stroke-width="1"/>
      <line id="XMLID_2973_" y1="6.486" transform="translate(1.178 4.746)" fill="none" stroke="#344154" stroke-linecap="round" stroke-miterlimit="10" stroke-width="1"/>
      <path id="XMLID_2972_" d="M494.932,1457.719l-6.275-5.519-6.257,5.519" transform="translate(-482.4 -1452.2)" fill="none" stroke="#344154" stroke-linecap="round" stroke-miterlimit="10" stroke-width="1"/>
      <path id="XMLID_2971_" d="M510.543,1463.87l-2.021-1.67-2.021,1.67" transform="translate(-502.264 -1460.442)" fill="none" stroke="#344154" stroke-linecap="round" stroke-miterlimit="10" stroke-width="1"/>
      <path id="XMLID_2970_" d="M506.5,1489.312v-3.691a2.01,2.01,0,0,1,2.021-2.021h0a2.01,2.01,0,0,1,2.021,2.021v3.691" transform="translate(-502.264 -1478.081)" fill="none" stroke="#344154" stroke-linecap="round" stroke-miterlimit="10" stroke-width="1"/>
    </g>
    <path id="XMLID_2965_" d="M458.867,1437.056v-2.039a.938.938,0,0,0-.932-.932H455l2.724-4.728h-1.74l2.285-3.955h-1.248l3.006-5.2,2.426,4.2" transform="translate(0 -20.111)" fill="none" stroke="#344154" stroke-linecap="round" stroke-miterlimit="10" stroke-width="1"/>
    <path id="XMLID_2964_" d="M496.84,1404.975H495.1l2.285-3.972h-1.248l2.988-5.2,3.006,5.2h-1.248l2.285,3.972H501.41" transform="translate(-33.052)" fill="none" stroke="#344154" stroke-linecap="round" stroke-miterlimit="10" stroke-width="1"/>
    <path id="XMLID_2963_" d="M542.368,1437.056v-2.039a.938.938,0,0,1,.932-.932h2.953l-2.724-4.728h1.74l-2.285-3.955h1.248l-3.006-5.2-2.426,4.2" transform="translate(-69.071 -20.111)" fill="none" stroke="#344154" stroke-linecap="round" stroke-miterlimit="10" stroke-width="1"/>
    <line id="XMLID_3006_" x2="18.631" transform="translate(456.758 1416.945)" fill="none" stroke="#344154" stroke-linecap="round" stroke-miterlimit="10" stroke-width="1"/>
  </g>
</svg>
