<svg xmlns="http://www.w3.org/2000/svg" width="29.879" height="25.561" viewBox="0 0 29.879 25.561">
  <g id="terms-icon4" transform="translate(-1561.361 -1401.6)">
    <path id="XMLID_52_" d="M1577.5,1474.6l1.67,1.67,1.323-1.345,1.345,1.345,1.345-1.345,1.345,1.345,1.649-1.67" transform="translate(-12.373 -56.773)" fill="none" stroke="#344154" stroke-miterlimit="10" stroke-width="1"/>
    <path id="XMLID_37_" d="M1561.7,1462.262l8.113-7.462,7.18,7.505" transform="translate(0 -41.268)" fill="none" stroke="#344154" stroke-linejoin="round" stroke-miterlimit="10" stroke-width="1"/>
    <path id="XMLID_36_" d="M1613.2,1439.717l8.894-8.417,9.111,9.7" transform="translate(-40.329 -22.866)" fill="none" stroke="#344154" stroke-linejoin="round" stroke-miterlimit="10" stroke-width="1"/>
    <rect id="XMLID_35_" width="3.254" height="2.842" stroke-width="1" fill="none" stroke="#344154" stroke-miterlimit="10" transform="translate(1581.765 1402.1)"/>
    <rect id="XMLID_34_" width="3.254" height="2.842" stroke-width="1" fill="none" stroke="#344154" stroke-miterlimit="10" transform="translate(1585.019 1403.532)"/>
    <line id="XMLID_32_" y1="6.334" transform="translate(1581.765 1402.1)" fill="none" stroke="#344154" stroke-linejoin="round" stroke-miterlimit="10" stroke-width="1"/>
    <path id="XMLID_31_" d="M1591.356,1442.9l3.189,3.189-2.646,2.646,3.167,3.167-2.451,2.473h-10.933l-4.382,4.382" transform="translate(-12.216 -31.95)" fill="none" stroke="#344154" stroke-miterlimit="10" stroke-width="1"/>
  </g>
</svg>
